<svg width="213" height="50" viewBox="0 0 213 50" fill="none" xmlns="http://www.w3.org/2000/svg">
<g clip-path="url(#clip0_85_457)">
<path d="M55.6046 31.2315L57.9161 31.0664C59.1555 30.9468 59.5706 30.7418 59.5706 30.4572V7.05034H57.6279C53.6216 7.21546 52.0132 9.21395 50.7739 11.6566L50.2378 13.4102H49.4941L50.9007 6.35571H71.8318L72.6964 13.4102H72.0335L71.6185 11.6964C70.258 8.47377 68.8515 7.16991 64.7644 7.04465H62.8218V30.5824C62.8218 30.8671 63.0293 30.9468 64.7183 31.1119L66.782 31.2315L66.9031 31.8407H55.4662L55.5873 31.2315H55.6046Z" fill="#1A1A1A"/>
<path d="M71.0078 23.5223C71.0078 18.0962 74.7259 13.7348 79.9256 13.7348C84.0126 13.7348 86.3646 16.2229 86.3646 19.3602C86.3646 19.7246 86.3242 20.0548 86.2839 20.4192L74.2302 20.3395C74.1495 20.8291 74.063 21.7287 74.063 22.2981C74.063 27.0296 76.8704 30.2522 80.5885 30.2522C82.9404 30.2522 84.6755 29.438 86.2032 27.1548L86.6586 27.3997C84.9234 30.497 82.5311 32.376 79.2684 32.376C74.5588 32.376 71.0078 28.5441 71.0078 23.528V23.5223ZM83.2287 19.6904C83.269 16.8379 82.0296 14.4294 79.5105 14.4294C77.2393 14.4294 75.0084 16.7524 74.3109 19.7303L83.2287 19.6904ZM81.9489 4.03271H85.3788L78.029 11.5769H77.614L81.9489 4.03271Z" fill="#1A1A1A"/>
<path d="M96.4004 19.3261C96.4004 11.3321 102.344 5.74658 110.812 5.74658C113.538 5.74658 116.017 6.52093 117.499 7.21556L119.937 6.2761L120.185 13.9854H119.522L116.836 8.06961C115.683 7.21556 113.533 6.48107 110.685 6.48107C103.998 6.48107 99.9514 11.947 99.9514 18.9218C99.9514 26.5058 104.327 31.6871 110.771 31.6871C114.858 31.6871 117.009 29.9733 118.986 27.1207L120.185 24.2682H120.888L119.528 30.9127L118.041 30.9526C116.473 31.6472 113.331 32.4614 110.57 32.4614C102.396 32.4614 96.4062 27.3257 96.4062 19.3318L96.4004 19.3261Z" fill="#1A1A1A"/>
<path d="M136.943 28.9881H136.862C135.087 30.4969 132.775 32.4157 130.048 32.4157C128.688 32.4157 127.61 32.0058 126.705 31.1916C125.794 30.2122 125.425 28.8287 125.425 27.075V15.5339C125.425 15.1695 125.385 15.1239 123.65 15.0044L122.658 14.8848L122.537 14.3154H128.319L128.238 26.1811C128.238 29.1191 129.599 30.2977 132.037 30.2977C134.02 30.2977 135.628 29.3183 136.868 28.2195V16.5531C136.868 15.3289 136.58 15.0841 135.133 15.0044L134.06 14.8848L133.939 14.3154H139.762V29.4037C139.762 30.1382 139.883 30.4229 140.586 30.5026L142.609 30.8272L142.569 31.277L136.914 32.5011L136.954 28.9938L136.943 28.9881Z" fill="#1A1A1A"/>
<path d="M143.508 23.5223C143.508 18.0962 147.226 13.7349 152.426 13.7349C156.513 13.7349 158.865 16.223 158.865 19.3602C158.865 19.7246 158.824 20.0549 158.784 20.4193L146.73 20.3396C146.649 20.8292 146.563 21.7288 146.563 22.2982C146.563 27.0297 149.37 30.2523 153.088 30.2523C155.44 30.2523 157.176 29.4381 158.703 27.1549L159.159 27.3997C157.423 30.4971 155.031 32.376 151.768 32.376C147.059 32.376 143.508 28.5442 143.508 23.528V23.5223ZM155.729 19.6905C155.769 16.8379 154.53 14.4295 152.011 14.4295C149.739 14.4295 147.508 16.7525 146.811 19.7303L155.729 19.6905Z" fill="#1A1A1A"/>
<path d="M161.015 31.2316L162.088 31.1918C163.16 31.1121 163.575 31.0267 163.575 30.5825V18.6315C163.575 16.428 163.287 16.0237 162.088 15.8188L160.768 15.6138L160.808 15.2039L166.423 13.8146L166.342 17.1967L166.463 17.2365C168.238 15.7675 170.59 13.769 173.357 13.769C174.637 13.769 175.796 14.1391 176.58 14.9533C177.531 15.8928 177.94 17.2764 177.94 19.0699V30.611C177.94 30.8957 178.021 31.021 179.675 31.1804L180.707 31.2202L180.828 31.8295H172.487L172.608 31.2202L173.68 31.1804C174.92 31.1007 175.127 30.8957 175.127 30.5712V19.9695C175.127 17.0714 173.807 15.8928 171.369 15.8928C169.426 15.8928 167.691 16.8721 166.371 18.0109V30.6509C166.371 30.9754 166.619 31.0608 168.106 31.1804L169.178 31.2202L169.299 31.8295H160.877L160.998 31.2202L161.015 31.2316Z" fill="#1A1A1A"/>
<path d="M184.344 28.1341L184.551 15.9838L181.329 15.904L181.45 15.2094L186.984 10.6431L187.48 10.7683L187.44 14.3554H193.55L193.054 15.904H187.44C187.44 15.904 187.151 27.69 187.151 27.7299C187.111 29.6885 188.183 30.5824 189.959 30.5824C191.406 30.5824 192.478 29.8878 193.469 29.1533L193.717 29.5632C192.19 31.0322 190.454 32.4158 188.431 32.4158C186.119 32.4158 184.304 31.3169 184.344 28.1341Z" fill="#1A1A1A"/>
<path d="M194.548 23.1579C194.548 17.897 198.595 13.7349 203.881 13.7349C209.167 13.7349 213.006 17.692 213.006 22.8676C213.006 28.0431 209 32.4102 203.76 32.4102C198.52 32.4102 194.554 28.4132 194.554 23.1522L194.548 23.1579ZM209.703 23.4825C209.703 20.3851 209 17.5667 207.432 16.018C206.521 15.1184 205.328 14.4295 203.713 14.4295C200.163 14.4295 197.851 18.1816 197.851 22.543C197.851 25.7657 198.595 28.6182 200.203 30.2124C201.068 31.112 202.307 31.7213 203.881 31.7213C207.305 31.7213 209.703 27.9691 209.703 23.4825Z" fill="#1A1A1A"/>
<path d="M112.715 43.2282V46.3825H116.519L116.444 46.9405H112.104V39.1572H116.444L116.519 39.7152H112.715V42.6702H116.254V43.2168H112.715V43.2282Z" fill="#333333"/>
<path d="M118.058 41.6567L118.946 43.7805C119.257 44.5378 119.58 45.3178 119.88 46.0978H119.903L120.814 43.8203L121.713 41.6567H122.289L122.313 41.6909L120.03 47.0999H119.742L117.447 41.6909L117.47 41.6567H118.047H118.058Z" fill="#333333"/>
<path d="M123.598 44.3498V44.4352C123.598 45.796 124.468 46.6558 125.598 46.6558C126.221 46.6558 126.889 46.4907 127.5 45.9839H127.535L127.604 46.5305C127.005 46.9348 126.301 47.1568 125.581 47.1568C124.024 47.1568 123.01 46.0124 123.01 44.31C123.01 42.6076 124.036 41.429 125.535 41.429C127.033 41.429 127.915 42.4937 127.915 44.1847C127.915 44.2416 127.915 44.2701 127.904 44.3384H123.598V44.3498ZM123.609 43.9L127.316 43.9114C127.27 42.6816 126.595 41.9414 125.535 41.9414C124.474 41.9414 123.719 42.7214 123.609 43.9Z" fill="#333333"/>
<path d="M132.4 41.4918L132.343 42.0839L132.297 42.1067C132.239 42.0953 132.199 42.0953 132.118 42.0953C131.328 42.0953 130.66 42.6362 130.118 43.5016V46.9406H129.553V41.6569H130.054L130.089 42.9437C130.677 42.0554 131.403 41.469 132.268 41.469C132.314 41.469 132.354 41.4804 132.4 41.4918Z" fill="#333333"/>
<path d="M133.668 41.6568L134.348 43.3592C134.683 44.1848 135.115 45.3065 135.438 46.1378H135.461L136.608 43.382L137.329 41.6568H137.94L137.963 41.691L134.602 49.3604H134.014V49.3262L135.15 46.7982L133.034 41.6853L133.057 41.6511H133.668V41.6568Z" fill="#333333"/>
<path d="M141.884 45.5797V42.1521H140.857V41.6567H141.889V40.1536L142.356 39.8689H142.443V41.6624H144.189V42.1578H142.443V45.5341C142.443 46.3711 142.708 46.6444 143.325 46.6444C143.636 46.6444 143.913 46.559 144.149 46.4451L144.207 46.4679L144.241 46.9746C143.965 47.0828 143.619 47.1739 143.25 47.1739C142.327 47.1739 141.884 46.6444 141.884 45.5911V45.5797Z" fill="#333333"/>
<path d="M145.555 44.3498V44.4352C145.555 45.796 146.425 46.6558 147.555 46.6558C148.178 46.6558 148.846 46.4907 149.457 45.9839H149.492L149.561 46.5305C148.962 46.9348 148.258 47.1568 147.538 47.1568C145.981 47.1568 144.967 46.0124 144.967 44.31C144.967 42.6076 145.993 41.429 147.492 41.429C148.99 41.429 149.872 42.4937 149.872 44.1847C149.872 44.2416 149.872 44.2701 149.861 44.3384H145.555V44.3498ZM145.566 43.9L149.273 43.9114C149.227 42.6816 148.552 41.9414 147.492 41.9414C146.431 41.9414 145.676 42.7214 145.566 43.9Z" fill="#333333"/>
<path d="M151.066 45.8416C151.066 44.6459 152.069 44.0367 154.525 43.7748V43.3876C154.525 42.357 154.191 41.9357 153.343 41.9357C152.744 41.9357 152.029 42.1976 151.453 42.6189H151.418L151.349 42.078C151.971 41.6852 152.773 41.429 153.407 41.429C154.542 41.429 155.09 42.0211 155.09 43.2111V46.9348H154.612L154.554 46.0693C153.764 46.8721 153.205 47.1568 152.473 47.1568C151.614 47.1568 151.061 46.6387 151.061 45.8359L151.066 45.8416ZM154.525 45.6651V44.1733C152.381 44.4352 151.631 44.9078 151.631 45.7903C151.631 46.3483 151.989 46.6899 152.588 46.6899C153.188 46.6899 153.758 46.3825 154.525 45.6651Z" fill="#333333"/>
<path d="M164.22 43.5471V46.9405H163.656V43.7634C163.656 42.5336 163.235 41.9585 162.376 41.9585C161.655 41.9585 160.929 42.4311 160.318 43.2112V46.9348H159.753V38.8555H160.318V42.6475C160.94 41.8902 161.684 41.429 162.52 41.429C163.609 41.429 164.22 42.1749 164.22 43.5414V43.5471Z" fill="#333333"/>
<path d="M165.852 45.8416C165.852 44.6459 166.855 44.0367 169.311 43.7748V43.3876C169.311 42.357 168.977 41.9357 168.129 41.9357C167.53 41.9357 166.815 42.1976 166.239 42.6189H166.204L166.135 42.078C166.757 41.6852 167.559 41.429 168.193 41.429C169.328 41.429 169.87 42.0211 169.87 43.2111V46.9348H169.392L169.334 46.0693C168.544 46.8721 167.985 47.1568 167.253 47.1568C166.394 47.1568 165.841 46.6387 165.841 45.8359L165.852 45.8416ZM169.311 45.6651V44.1733C167.167 44.4352 166.417 44.9078 166.417 45.7903C166.417 46.3483 166.775 46.6899 167.374 46.6899C167.974 46.6899 168.544 46.3825 169.311 45.6651Z" fill="#333333"/>
<path d="M171.473 46.5932L171.542 46.0352H171.576C172.222 46.5192 172.735 46.6729 173.312 46.6729C174.055 46.6729 174.557 46.2972 174.557 45.7278C174.557 45.2097 174.303 44.9022 173.277 44.4866C171.888 43.9286 171.565 43.4845 171.565 42.7728C171.565 42.061 172.211 41.4404 173.225 41.4404C173.778 41.4404 174.338 41.5942 174.926 41.9586L174.851 42.5051H174.816C174.205 42.0667 173.669 41.9358 173.214 41.9358C172.556 41.9358 172.147 42.3002 172.147 42.7841C172.147 43.2681 172.36 43.5186 173.536 44.0254C174.747 44.5435 175.139 44.9478 175.139 45.7164C175.139 46.5648 174.407 47.1683 173.306 47.1683C172.637 47.1683 172.084 46.9918 171.478 46.5989L171.473 46.5932Z" fill="#333333"/>
<path d="M178.863 45.8416C178.863 44.6459 179.866 44.0367 182.322 43.7748V43.3876C182.322 42.357 181.988 41.9357 181.14 41.9357C180.541 41.9357 179.826 42.1976 179.249 42.6189H179.215L179.146 42.078C179.768 41.6852 180.569 41.429 181.204 41.429C182.339 41.429 182.887 42.0211 182.887 43.2111V46.9348H182.408L182.351 46.0693C181.561 46.8721 181.002 47.1568 180.27 47.1568C179.411 47.1568 178.857 46.6387 178.857 45.8359L178.863 45.8416ZM182.322 45.6651V44.1733C180.178 44.4352 179.428 44.9078 179.428 45.7903C179.428 46.3483 179.786 46.6899 180.385 46.6899C180.985 46.6899 181.555 46.3825 182.322 45.6651Z" fill="#333333"/>
<path d="M187.043 46.5932L187.112 46.0352H187.147C187.792 46.5192 188.305 46.6729 188.882 46.6729C189.625 46.6729 190.127 46.2972 190.127 45.7278C190.127 45.2097 189.873 44.9022 188.847 44.4866C187.458 43.9286 187.135 43.4845 187.135 42.7728C187.135 42.061 187.781 41.4404 188.795 41.4404C189.349 41.4404 189.908 41.5942 190.496 41.9586L190.415 42.5051H190.381C189.77 42.0667 189.234 41.9358 188.778 41.9358C188.121 41.9358 187.712 42.3002 187.712 42.7841C187.712 43.2681 187.925 43.5186 189.101 44.0254C190.311 44.5435 190.703 44.9478 190.703 45.7164C190.703 46.5648 189.971 47.1683 188.87 47.1683C188.202 47.1683 187.648 46.9918 187.043 46.5989V46.5932Z" fill="#333333"/>
<path d="M192.472 45.5797V42.1521H191.446V41.6567H192.478V40.1536L192.945 39.8689H193.032V41.6624H194.778V42.1578H193.032V45.5341C193.032 46.3711 193.297 46.6444 193.914 46.6444C194.225 46.6444 194.502 46.559 194.738 46.4451L194.796 46.4679L194.83 46.9746C194.553 47.0828 194.208 47.1739 193.839 47.1739C192.916 47.1739 192.472 46.6444 192.472 45.5911V45.5797Z" fill="#333333"/>
<path d="M195.557 44.3044C195.557 42.676 196.612 41.4348 198.272 41.4348C199.932 41.4348 200.987 42.676 200.987 44.3044C200.987 45.9328 199.932 47.1627 198.272 47.1627C196.612 47.1627 195.557 45.9442 195.557 44.3044ZM200.387 44.3044C200.387 42.9721 199.575 41.9643 198.272 41.9643C196.969 41.9643 196.145 42.9778 196.145 44.3044C196.145 45.6311 196.98 46.6332 198.272 46.6332C199.563 46.6332 200.387 45.6425 200.387 44.3044Z" fill="#333333"/>
<path d="M205.46 41.4918L205.402 42.0839L205.356 42.1067C205.299 42.0953 205.258 42.0953 205.178 42.0953C204.388 42.0953 203.719 42.6362 203.177 43.5016V46.9406H202.612V41.6569H203.114L203.148 42.9437C203.736 42.0554 204.463 41.469 205.327 41.469C205.374 41.469 205.414 41.4804 205.46 41.4918Z" fill="#333333"/>
<path d="M206.729 41.6568L207.409 43.3592C207.743 44.1848 208.176 45.3065 208.499 46.1378H208.522L209.669 43.382L210.389 41.6568H211L211.023 41.691L207.663 49.3604H207.075V49.3262L208.21 46.7982L206.095 41.6853L206.118 41.6511H206.729V41.6568Z" fill="#333333"/>
<path d="M210.855 46.5818C210.855 46.3199 211.057 46.1206 211.311 46.1206C211.565 46.1206 211.755 46.3199 211.755 46.5818C211.755 46.8437 211.553 47.0544 211.311 47.0544C211.069 47.0544 210.855 46.8437 210.855 46.5818Z" fill="#333333"/>
<path d="M37.6601 25.5322C37.5563 24.5927 37.3719 23.6533 37.1932 22.7138C37.1528 22.5089 37.0145 22.2697 36.8358 22.1445C36.2824 21.7744 35.7232 21.4043 35.1006 21.1367C34.4089 20.8349 33.648 20.6413 32.9274 20.4022C33.4347 20.7666 33.9823 21.057 34.4435 21.4214C34.9565 21.8256 34.9738 22.3722 34.4838 22.8106C34.1322 23.1181 33.7171 23.4085 33.2617 23.585C32.4028 23.9152 31.5151 24.2113 30.6158 24.4219C27.2781 25.202 23.854 25.4354 20.4126 25.5151C17.2017 25.5891 14.0024 25.4639 10.8204 25.0653C8.90077 24.8262 6.98694 24.5244 5.1884 23.864C4.56583 23.6305 3.95478 23.3231 3.43021 22.953C2.74423 22.4747 2.75576 21.8313 3.41868 21.3303C3.85679 21 4.36983 20.7495 4.87135 20.442C3.75303 20.6983 2.68082 21.0399 1.70085 21.5694C0.986043 21.9509 0.432647 22.4348 0.496057 23.249C0.496057 23.3003 0.484528 23.3629 0.467234 23.4142C-0.149572 25.8169 -0.155337 28.2196 0.478763 30.6167C1.44144 34.2834 3.61468 37.3239 6.98694 39.6811C10.9241 42.4425 15.4551 43.6211 20.5163 43.2795C22.9663 43.1087 25.2894 42.545 27.4626 41.5657C31.3018 39.8462 34.161 37.2897 35.9999 33.8963C37.4353 31.243 37.9887 28.4474 37.6716 25.5322H37.6601ZM35.2851 9.46458C34.6452 9.05463 33.9247 8.71871 33.1926 8.43971C31.077 7.62552 28.8173 7.18141 26.5806 6.66897C24.6726 6.24195 22.8683 5.60994 21.3234 4.51675C19.9283 3.53744 18.9599 2.32468 18.6774 0.753217C18.6601 0.656424 18.6313 0.559631 18.5794 0.360352C18.3316 0.667811 18.1356 0.884172 17.9684 1.11761C16.8731 2.60936 17.0807 3.99863 18.5794 5.16014C18.8619 5.3765 19.1732 5.58148 19.4845 5.76937C20.8795 6.59496 22.4013 7.18141 23.9751 7.68245C26.0561 8.34292 28.1659 8.95215 30.2526 9.61262C31.198 9.90869 32.1549 10.2218 32.8928 10.8538C33.2963 11.2012 33.2848 11.5769 32.8294 11.8787C32.5239 12.0723 32.1838 12.2488 31.8321 12.3684C29.8722 13.0744 27.8027 13.4274 25.7332 13.7406C22.1016 14.3042 18.4526 14.7768 14.8267 15.3462C13.3222 15.5796 11.8464 15.9497 10.3765 16.297C9.89227 16.4109 9.41957 16.6216 8.993 16.8493C8.24361 17.2536 8.23208 17.7261 8.93535 18.1873C9.13711 18.324 9.35616 18.4492 9.59251 18.5346C10.3938 18.8193 11.1835 19.1496 12.0194 19.3375C14.527 19.8954 17.0461 20.4079 19.5709 20.9032C21.0409 21.1879 22.5224 21.3986 24.0039 21.6377C24.0154 21.6092 24.0269 21.5865 24.0385 21.5637C23.462 21.41 22.8913 21.2676 22.3206 21.1139C19.8822 20.4591 17.4496 19.793 15.1322 18.8421C14.7806 18.6941 14.4405 18.5119 14.135 18.3012C13.8295 18.0905 13.8698 17.8571 14.2041 17.6863C14.4232 17.5724 14.6653 17.4756 14.9074 17.4358C15.9969 17.2536 17.0922 17.0941 18.1817 16.9404C20.5106 16.6102 22.8452 16.3027 25.1741 15.9497C27.3646 15.6252 29.5321 15.2095 31.6361 14.5661C32.9735 14.1619 34.2763 13.6779 35.3716 12.858C36.8358 11.7705 36.8242 10.4553 35.2793 9.46458H35.2851Z" fill="url(#paint0_linear_85_457)"/>
</g>
<defs>
<linearGradient id="paint0_linear_85_457" x1="27.4511" y1="-4.93479" x2="13.3351" y2="48.6502" gradientUnits="userSpaceOnUse">
<stop stop-color="#DEDEDE"/>
<stop offset="0.4" stop-color="#87549C"/>
<stop offset="0.89" stop-color="#312631"/>
<stop offset="1"/>
</linearGradient>
<clipPath id="clip0_85_457">
<rect width="213" height="49" fill="white" transform="translate(0 0.360352)"/>
</clipPath>
</defs>
</svg>
