<svg width="274" height="64" viewBox="0 0 274 64" fill="none" xmlns="http://www.w3.org/2000/svg">
<g clip-path="url(#clip0_106_427)">
<path d="M89.9601 10.6487V14.6603H79.2217V42.544H74.8897V14.6603H64.1074V10.6487H89.9527H89.9601Z" fill="#1A1A1A"/>
<path d="M91.6752 32.3172V32.405C91.6752 37.0901 94.5632 39.8865 98.4847 39.8865C100.918 39.8865 103.806 39.1691 106.064 37.0462H106.247L106.702 40.8748C104.356 42.4487 101.292 43.4443 98.2648 43.4443C91.5433 43.4443 87.3945 38.6713 87.3945 31.5924C87.3945 24.5135 91.6825 19.5649 97.9936 19.5649C104.305 19.5649 108.006 23.9792 108.006 31.3216C108.006 31.6803 108.006 31.9072 107.962 32.3099H91.6752V32.3172ZM91.7632 29.3011L103.806 29.3451C103.579 25.3774 101.373 23.0348 98.0303 23.0348C94.6878 23.0348 92.2543 25.3774 91.7632 29.2938V29.3011ZM104.803 9.79208L99.2544 16.688H96.0072L100.244 9.47729H104.62L104.803 9.79208V9.79208Z" fill="#1A1A1A"/>
<path d="M123.018 26.6437C123.018 16.7318 129.739 9.74805 139.165 9.74805C143.314 9.74805 147.148 11.0511 150.893 13.7157L150.307 18.2178H150.124C146.789 15.4214 143.087 13.8914 139.297 13.8914C132.393 13.8914 127.701 19.0743 127.701 26.5485C127.701 34.0227 132.437 39.3008 139.429 39.3008C143.175 39.3008 146.913 37.7269 150.256 34.9305H150.439L151.025 39.4326C147.368 42.0899 143.446 43.4442 139.209 43.4442C129.695 43.4442 123.018 36.5483 123.018 26.6437V26.6437Z" fill="#1A1A1A"/>
<path d="M172.678 20.4727H176.783V42.5439H173.221L172.95 38.5762C170.516 41.6874 167.804 43.4443 164.696 43.4443C160.591 43.4443 157.975 40.56 157.975 34.8867V20.4727H162.079V34.2132C162.079 37.9979 163.479 39.7109 165.869 39.7109C168.083 39.7109 170.516 38.0857 172.678 35.2527V20.4727V20.4727Z" fill="#1A1A1A"/>
<path d="M187.023 32.3172V32.4051C187.023 37.0902 189.911 39.8866 193.832 39.8866C196.266 39.8866 199.154 39.1692 201.412 37.0462H201.595L202.049 40.8748C199.704 42.4487 196.64 43.4443 193.612 43.4443C186.891 43.4443 182.742 38.6714 182.742 31.5925C182.742 24.5136 187.03 19.5649 193.341 19.5649C199.652 19.5649 203.354 23.9792 203.354 31.3216C203.354 31.6803 203.354 31.9073 203.31 32.3099H187.023V32.3172ZM187.111 29.3012L199.154 29.3451C198.927 25.3774 196.72 23.0348 193.378 23.0348C190.035 23.0348 187.602 25.3774 187.111 29.2939V29.3012Z" fill="#1A1A1A"/>
<path d="M229.606 27.903V42.5439H225.501V28.9425C225.501 25.026 224.101 23.313 221.352 23.313C218.875 23.313 216.478 24.843 214.36 27.1416V42.5512H210.255V20.4727H213.861L214.088 23.8987C216.39 21.3292 219.139 19.5723 222.525 19.5723C227.033 19.5723 229.606 22.5444 229.606 27.903V27.903Z" fill="#1A1A1A"/>
<path d="M237.043 36.1897V23.8473H233.121V20.4653H237.182V15.2824L240.568 13.2107H241.155V20.4653H247.693V23.8473H241.155V35.9188C241.155 38.847 242.012 39.7035 244.175 39.7035C245.164 39.7035 246.293 39.4766 247.378 38.9861L247.737 39.1691L247.869 42.6829C246.513 43.1807 244.893 43.4516 243.537 43.4516C239.161 43.4516 237.043 41.0651 237.043 36.197V36.1897Z" fill="#1A1A1A"/>
<path d="M250.661 31.5486C250.661 24.7039 255.213 19.5649 262.118 19.5649C269.023 19.5649 273.574 24.7039 273.574 31.5486C273.574 38.3932 269.067 43.4443 262.118 43.4443C255.169 43.4443 250.661 38.4884 250.661 31.5486ZM269.294 31.5486C269.294 26.7317 266.589 23.3057 262.125 23.3057C257.661 23.3057 254.905 26.7317 254.905 31.5486C254.905 36.3654 257.654 39.7036 262.125 39.7036C266.596 39.7036 269.294 36.3727 269.294 31.5486Z" fill="#1A1A1A"/>
<path d="M144.143 55.2959V59.3515H148.981L148.886 60.0689H143.366V50.0618H148.886L148.981 50.7792H144.143V54.5785H148.644V55.2813H144.143V55.2959Z" fill="#333333"/>
<path d="M150.938 53.2754L152.067 56.0059C152.463 56.9796 152.873 57.9825 153.254 58.9854H153.284L154.442 56.0572L155.585 53.2754H156.318L156.348 53.3193L153.445 60.2738H153.078L150.161 53.3193L150.19 53.2754H150.923H150.938Z" fill="#333333"/>
<path d="M157.982 56.7381V56.8479C157.982 58.5975 159.089 59.7029 160.526 59.7029C161.317 59.7029 162.167 59.4906 162.944 58.839H162.988L163.076 59.5418C162.314 60.0616 161.42 60.3471 160.504 60.3471C158.524 60.3471 157.234 58.8757 157.234 56.6868C157.234 54.498 158.539 52.9827 160.445 52.9827C162.351 52.9827 163.472 54.3516 163.472 56.5258C163.472 56.599 163.472 56.6356 163.457 56.7234H157.982V56.7381ZM157.997 56.1598L162.71 56.1744C162.651 54.5932 161.794 53.6415 160.445 53.6415C159.096 53.6415 158.136 54.6444 157.997 56.1598Z" fill="#333333"/>
<path d="M169.175 53.0632L169.101 53.8245L169.043 53.8538C168.969 53.8392 168.918 53.8392 168.816 53.8392C167.811 53.8392 166.961 54.5346 166.272 55.6473V60.0689H165.554V53.2755H166.191L166.235 54.9299C166.983 53.7879 167.907 53.0339 169.006 53.0339C169.065 53.0339 169.116 53.0486 169.175 53.0632V53.0632Z" fill="#333333"/>
<path d="M170.788 53.2754L171.653 55.4642C172.078 56.5257 172.628 57.9678 173.038 59.0366H173.067L174.526 55.4935L175.442 53.2754H176.219L176.249 53.3193L171.975 63.18H171.228V63.1361L172.672 59.8858L169.981 53.312L170.011 53.2681H170.788V53.2754Z" fill="#333333"/>
<path d="M180.412 56.6941C180.412 54.5053 181.724 52.99 183.681 52.99C184.502 52.99 185.25 53.2462 186.012 53.7952L185.917 54.5273H185.873C185.096 53.8904 184.444 53.6635 183.696 53.6635C182.252 53.6635 181.16 54.8055 181.16 56.6722C181.16 58.5389 182.252 59.6809 183.637 59.6809C184.356 59.6809 185.081 59.454 185.873 58.8171H185.917L186.012 59.5345C185.25 60.0396 184.488 60.3397 183.608 60.3397C181.695 60.3397 180.412 58.8683 180.412 56.6795V56.6941Z" fill="#333333"/>
<path d="M192.975 53.2754H193.693V60.0688H193.041L192.997 58.5461C192.22 59.6881 191.245 60.3543 190.226 60.3543C188.914 60.3543 188.13 59.4246 188.13 57.6018V53.2754H188.848V57.3749C188.848 58.9561 189.369 59.6808 190.387 59.6808C191.333 59.6808 192.242 58.9341 192.96 57.858V53.2827L192.975 53.2754Z" fill="#333333"/>
<path d="M202.519 56.599C202.519 58.8317 201.134 60.3544 199.294 60.3544C198.502 60.3544 197.725 60.0323 197.073 59.5491V63.1801H196.354V53.2755H196.992L197.022 54.1905C197.74 53.4731 198.634 52.99 199.565 52.99C201.375 52.99 202.519 54.476 202.519 56.5917V56.599ZM201.771 56.599C201.771 54.864 200.877 53.6708 199.411 53.6708C198.531 53.6708 197.711 54.1539 197.08 54.7981V58.8976C197.747 59.3954 198.407 59.6882 199.206 59.6882C200.723 59.6882 201.779 58.473 201.779 56.5917L201.771 56.599Z" fill="#333333"/>
<path d="M213.55 55.7059V60.0689H212.831V55.9841C212.831 54.4029 212.296 53.6635 211.204 53.6635C210.288 53.6635 209.364 54.2711 208.587 55.274V60.0616H207.869V49.6738H208.587V54.5493C209.379 53.5756 210.325 52.9827 211.388 52.9827C212.773 52.9827 213.55 53.9417 213.55 55.6986V55.7059Z" fill="#333333"/>
<path d="M215.632 58.656C215.632 57.1187 216.907 56.3354 220.03 55.9987V55.5009C220.03 54.1759 219.605 53.6342 218.527 53.6342C217.765 53.6342 216.856 53.9709 216.123 54.5126H216.079L215.991 53.8172C216.783 53.3121 217.801 52.9827 218.608 52.9827C220.052 52.9827 220.741 53.744 220.741 55.274V60.0616H220.132L220.059 58.9489C219.055 59.981 218.344 60.3471 217.413 60.3471C216.321 60.3471 215.617 59.6809 215.617 58.6487L215.632 58.656ZM220.03 58.4291V56.5111C217.303 56.8479 216.35 57.4555 216.35 58.5902C216.35 59.3076 216.805 59.7468 217.567 59.7468C218.329 59.7468 219.055 59.3515 220.03 58.4291V58.4291Z" fill="#333333"/>
<path d="M222.778 59.6223L222.866 58.9049H222.91C223.731 59.5272 224.384 59.7248 225.117 59.7248C226.062 59.7248 226.7 59.2417 226.7 58.5096C226.7 57.8435 226.377 57.4482 225.073 56.9138C223.306 56.1964 222.896 55.6254 222.896 54.7103C222.896 53.7952 223.717 52.9973 225.007 52.9973C225.71 52.9973 226.421 53.195 227.169 53.6635L227.074 54.3662H227.03C226.253 53.8026 225.571 53.6342 224.992 53.6342C224.156 53.6342 223.636 54.1027 223.636 54.7249C223.636 55.3472 223.907 55.6693 225.402 56.3208C226.942 56.987 227.44 57.5067 227.44 58.495C227.44 59.5857 226.509 60.3617 225.109 60.3617C224.259 60.3617 223.555 60.1348 222.786 59.6297L222.778 59.6223Z" fill="#333333"/>
<path d="M232.176 58.656C232.176 57.1187 233.451 56.3354 236.574 55.9987V55.5009C236.574 54.1759 236.149 53.6342 235.071 53.6342C234.309 53.6342 233.4 53.9709 232.667 54.5126H232.623L232.535 53.8172C233.327 53.3121 234.345 52.9827 235.152 52.9827C236.596 52.9827 237.285 53.744 237.285 55.274V60.0616H236.676L236.603 58.9489C235.599 59.981 234.888 60.3471 233.957 60.3471C232.865 60.3471 232.161 59.6809 232.161 58.6487L232.176 58.656ZM236.574 58.4291V56.5111C233.847 56.8479 232.894 57.4555 232.894 58.5902C232.894 59.3076 233.349 59.7468 234.111 59.7468C234.873 59.7468 235.599 59.3515 236.574 58.4291V58.4291Z" fill="#333333"/>
<path d="M242.577 59.6223L242.665 58.9049H242.709C243.53 59.5272 244.182 59.7248 244.915 59.7248C245.861 59.7248 246.499 59.2417 246.499 58.5096C246.499 57.8435 246.176 57.4482 244.871 56.9138C243.105 56.1964 242.694 55.6254 242.694 54.7103C242.694 53.7952 243.515 52.9973 244.805 52.9973C245.509 52.9973 246.22 53.195 246.968 53.6635L246.865 54.3662H246.821C246.044 53.8026 245.363 53.6342 244.783 53.6342C243.948 53.6342 243.427 54.1027 243.427 54.7249C243.427 55.3472 243.699 55.6693 245.194 56.3208C246.733 56.987 247.232 57.5067 247.232 58.495C247.232 59.5857 246.301 60.3617 244.901 60.3617C244.05 60.3617 243.347 60.1348 242.577 59.6297V59.6223Z" fill="#333333"/>
<path d="M249.481 58.3192V53.9123H248.177V53.2754H249.489V51.3428L250.083 50.9768H250.192V53.2828H252.413V53.9196H250.192V58.2607C250.192 59.3368 250.53 59.6882 251.314 59.6882C251.71 59.6882 252.062 59.5784 252.362 59.432L252.435 59.4612L252.479 60.1128C252.128 60.2519 251.688 60.369 251.219 60.369C250.046 60.369 249.481 59.6882 249.481 58.3339V58.3192Z" fill="#333333"/>
<path d="M253.396 56.6795C253.396 54.5859 254.737 52.99 256.848 52.99C258.959 52.99 260.3 54.5859 260.3 56.6795C260.3 58.7732 258.959 60.3544 256.848 60.3544C254.737 60.3544 253.396 58.7878 253.396 56.6795ZM259.538 56.6795C259.538 54.9665 258.504 53.6708 256.848 53.6708C255.191 53.6708 254.143 54.9738 254.143 56.6795C254.143 58.3852 255.206 59.6736 256.848 59.6736C258.49 59.6736 259.538 58.3998 259.538 56.6795Z" fill="#333333"/>
<path d="M265.988 53.0632L265.915 53.8245L265.856 53.8538C265.783 53.8392 265.732 53.8392 265.629 53.8392C264.625 53.8392 263.775 54.5346 263.086 55.6473V60.0689H262.367V53.2755H263.005L263.049 54.9299C263.797 53.7879 264.72 53.0339 265.82 53.0339C265.878 53.0339 265.93 53.0486 265.988 53.0632V53.0632Z" fill="#333333"/>
<path d="M267.608 53.2754L268.473 55.4642C268.898 56.5257 269.448 57.9678 269.858 59.0366H269.888L271.346 55.4935L272.263 53.2754H273.04L273.069 53.3193L268.795 63.18H268.048V63.1361L269.492 59.8858L266.802 53.312L266.831 53.2681H267.608V53.2754Z" fill="#333333"/>
<path d="M272.856 59.6076C272.856 59.2709 273.113 59.0146 273.436 59.0146C273.758 59.0146 274 59.2709 274 59.6076C274 59.9443 273.743 60.2152 273.436 60.2152C273.128 60.2152 272.856 59.9443 272.856 59.6076Z" fill="#333333"/>
<path d="M50.1366 32.544C50.0047 31.3361 49.7555 30.1282 49.5136 28.9204C49.4623 28.6568 49.279 28.3494 49.0372 28.1883C48.3042 27.7125 47.5565 27.2367 46.7282 26.8926C45.8047 26.5046 44.8005 26.2557 43.8329 25.9482C44.5073 26.4168 45.2329 26.7901 45.8486 27.2586C46.5303 27.7784 46.5523 28.4811 45.8999 29.0448C45.4382 29.4401 44.8738 29.8135 44.2727 30.0404C43.1292 30.465 41.9491 30.8456 40.747 31.1165C36.3051 32.1194 31.7459 32.4195 27.1647 32.522C22.8913 32.6172 18.6326 32.4561 14.3959 31.9437C11.8378 31.6363 9.29429 31.2483 6.8974 30.3991C6.06912 30.099 5.2555 29.7036 4.55183 29.2278C3.64292 28.6129 3.65758 27.7857 4.53717 27.1415C5.12356 26.7169 5.80524 26.3948 6.47227 25.9995C4.98429 26.3289 3.55496 26.7681 2.25023 27.4489C1.30467 27.9394 0.564347 28.5617 0.652306 29.6085C0.652306 29.6744 0.637646 29.7549 0.615657 29.8208C-0.205295 32.91 -0.212625 35.9993 0.630316 39.0812C1.91305 43.7956 4.80105 47.7047 9.29429 50.7354C14.5425 54.2858 20.5677 55.8011 27.3039 55.3619C30.5657 55.1423 33.659 54.4176 36.5543 53.1585C41.6632 50.9477 45.4748 47.6608 47.9157 43.2978C49.8288 39.8864 50.5618 36.2921 50.144 32.544H50.1366ZM46.9774 11.8856C46.1272 11.3585 45.167 10.9266 44.1921 10.5679C41.3701 9.5211 38.3648 8.9501 35.3888 8.29126C32.8453 7.74223 30.4485 6.92965 28.3888 5.52412C26.5343 4.265 25.2442 2.70574 24.8631 0.685289C24.8411 0.56084 24.7971 0.436392 24.7311 0.180176C24.4013 0.575481 24.1447 0.853659 23.9175 1.1538C22.4588 3.07176 22.7374 4.85796 24.7311 6.35134C25.1049 6.62951 25.5227 6.89305 25.9406 7.13463C27.795 8.1961 29.8254 8.9501 31.9218 9.59431C34.6925 10.4435 37.4999 11.2268 40.2779 12.0759C41.5386 12.4566 42.8067 12.8592 43.7889 13.6718C44.324 14.1184 44.3094 14.6015 43.7083 14.9895C43.3052 15.2384 42.8507 15.4653 42.3816 15.6191C39.7721 16.5268 37.0161 16.9807 34.2674 17.3833C29.4369 18.108 24.5699 18.7156 19.7468 19.4477C17.7457 19.7478 15.7813 20.2236 13.8169 20.6702C13.1718 20.8166 12.5488 21.0874 11.977 21.3803C10.9728 21.9 10.9655 22.5076 11.9037 23.1006C12.175 23.2763 12.4608 23.4373 12.776 23.5471C13.8388 23.9132 14.8944 24.3377 16.0085 24.5793C19.3436 25.2967 22.7007 25.9556 26.0652 26.5924C28.0223 26.9585 29.994 27.2293 31.9731 27.5368C31.9877 27.5002 32.0024 27.4709 32.0171 27.4416C31.2548 27.244 30.4924 27.061 29.7301 26.8633C26.483 26.0215 23.2431 25.165 20.1646 23.9424C19.6955 23.7521 19.241 23.5178 18.8305 23.247C18.4201 22.9761 18.4787 22.676 18.9258 22.4564C19.2117 22.31 19.5415 22.1855 19.864 22.1343C21.3154 21.9 22.774 21.6951 24.2254 21.4974C27.3259 21.0728 30.4338 20.6775 33.5344 20.2236C36.4517 19.8064 39.3397 19.272 42.1324 18.4448C43.9135 17.925 45.6434 17.3028 47.1094 16.2486C49.0591 14.8504 49.0445 13.1594 46.9848 11.8856H46.9774Z" fill="url(#paint0_linear_106_427)"/>
</g>
<defs>
<linearGradient id="paint0_linear_106_427" x1="36.0339" y1="-6.63518" x2="17.6873" y2="62.2623" gradientUnits="userSpaceOnUse">
<stop stop-color="#DEDEDE"/>
<stop offset="0.4" stop-color="#87549C"/>
<stop offset="0.89" stop-color="#312631"/>
<stop offset="1"/>
</linearGradient>
<clipPath id="clip0_106_427">
<rect width="274" height="63" fill="white" transform="translate(0 0.180176)"/>
</clipPath>
</defs>
</svg>
